# xmcd
#
# Track frame offsets:
#	150
#	23089
#	39513
#	56255
#	73306
#	88733
#	105079
#	124129
#	144080
#	159970
#
# Disc length: 2363 seconds
#
# Revision: 0
# Processed by: cddbd v1.5.2PL0 Copyright (c) Steve Scherf et al.
# Submitted via: EasyCDDAExtractor 11.6.0.1
#
DISCID=7509390a
DTITLE=林良乐 - [1987] 好大的风
DYEAR=1987
DGENRE=
TTITLE0=好大的风
TTITLE1=拼图游戏
TTITLE2=拥有之后
TTITLE3=心里只有你
TTITLE4=暂时离开
TTITLE5=是的是的 (是的)
TTITLE6=找一个藉口说再见
TTITLE7=迎接寂寞
TTITLE8=你可曾爱过
TTITLE9=冷的选择
EXTD=
EXTT0=
EXTT1=
EXTT2=
EXTT3=
EXTT4=
EXTT5=
EXTT6=
EXTT7=
EXTT8=
EXTT9=
PLAYORDER=
